<?xml version="1.0" encoding="UTF-8"?>
<svg xmlns="http://www.w3.org/2000/svg" xmlns:xlink="http://www.w3.org/1999/xlink" version="1.1" width="116" height="116" x="0" y="0" viewBox="0 0 512 512" style="enable-background:new 0 0 512 512" xml:space="preserve">
  <g>
    <linearGradient xmlns="http://www.w3.org/2000/svg" id="linear-gradient" gradientUnits="userSpaceOnUse" x1="75.385" x2="373.688" y1="426.706" y2="128.403">
      <stop stop-opacity="1" stop-color="#0968d9" offset="0.3783783783783784"/>
      <stop stop-opacity="1" stop-color="#6213cb" offset="1"/>
    </linearGradient>
    <g xmlns="http://www.w3.org/2000/svg" id="gradient">
      <path d="m439.806 200.511-58.932-31.887a33.855 33.855 0 0 0 -.805-19.833 34.373 34.373 0 0 0 -33.506-22.671c-7.031-9.015-27.1-35.14-38.358-50.349a34.128 34.128 0 0 0 -27.327-13.771h-34.878a8.005 8.005 0 0 0 -4.438 1.344l-14.543 9.7-18.26-1.513a44.137 44.137 0 0 0 -36.741 14.869l-21.418 24.479-40.713-14.919a32.007 32.007 0 0 0 -31.987 54.219 32.019 32.019 0 0 0 -2.025 50.59 31.066 31.066 0 0 0 -.889 47.085 30.789 30.789 0 0 0 -2.836 3.52l-1.129.515q-.106.048-.21.1a90.99 90.99 0 0 0 69.784 167.679l163.511-56.268a7.956 7.956 0 0 0 2.986 2.054l47.66 18.593a101.337 101.337 0 0 0 85.054-183.535zm-223.285-95.338a15.557 15.557 0 0 1 6.769-10.417l25.136-16.756h32.452a18.065 18.065 0 0 1 14.465 7.288c8.4 11.354 20.823 27.594 25.773 34.049 2.925 3.813 5.653 7.357 7.983 10.372l-38.283 9.707-23.723-19.585a8 8 0 0 0 -6.662-1.676l-25.349 5.071a15.79 15.79 0 0 1 -15.646-5.978 15.559 15.559 0 0 1 -2.915-12.075zm-132.667 15.327a15.971 15.971 0 0 1 20.528-9.518l75.118 27.526a16 16 0 0 1 -11.01 30.046l-75.118-27.525a16 16 0 0 1 -9.518-20.529zm-2.435 50.232a16 16 0 0 1 20.528-9.518l75.116 27.524a15.993 15.993 0 0 1 -10.653 30.162l-.256-.1c-.174-.066-.351-.117-.527-.17l-74.69-27.368a16.017 16.017 0 0 1 -9.518-20.529zm9.831 68.316a15 15 0 0 1 3.55-29.333l65.753 24.094c.209.076.42.142.629.214l8.772 3.323a12.2 12.2 0 0 1 6.562 6.874 12.773 12.773 0 0 1 -.093 10.026 11.913 11.913 0 0 1 -14.235 6.39zm61.475 49.194a6.628 6.628 0 0 1 -3.7.66l-53.455-5.937a14.439 14.439 0 0 1 -4.712-27.311l62 18.867c.056.051.106.106.165.156a6.674 6.674 0 0 1 1.839 2.546l1.048 2.57a6.673 6.673 0 0 1 -3.185 8.45zm-17.34 116.3a74.983 74.983 0 0 1 -68.34-131.663 30.424 30.424 0 0 0 26.755 25.988l53.449 5.939a23.09 23.09 0 0 0 2.517.139 22.621 22.621 0 0 0 21.84-28.475 27.938 27.938 0 0 0 19.343-15.532 28.843 28.843 0 0 0 .42-22.648 29.218 29.218 0 0 0 -3.855-6.814 32 32 0 0 0 5.014-51.893 31.98 31.98 0 0 0 -7.528-56.1l-18.3-6.706 17.359-19.84a28.089 28.089 0 0 1 23.383-9.466l.217.018a31.739 31.739 0 0 0 -1.023 39.358 31.867 31.867 0 0 0 31.583 12.067l21.621-4.324 23.918 19.746a8.008 8.008 0 0 0 7.059 1.586l51.921-13.167c9.366-2.5 19.129 2.48 22.233 11.331a18.1 18.1 0 0 1 -10.866 22.956l-46.305 13.268a8 8 0 1 0 4.406 15.38l45.143-12.932a18.062 18.062 0 0 1 2.979 35.1l-.021.008-46.172 13.228a8 8 0 1 0 4.407 15.381l45.433-13.017a18.157 18.157 0 0 1 17.091 12.342 18.071 18.071 0 0 1 -11.43 22.859l-12.193 4.065c-.079.026-.153.06-.23.088l-45.833 13.126a8 8 0 1 0 4.407 15.38l45.194-12.947a14.124 14.124 0 0 1 3.057 27.484zm334.015-79.886a85.292 85.292 0 0 1 -108.833 44.484l-34.28-13.374 42.883-14.756a30.155 30.155 0 0 0 11.73-49.947 34.037 34.037 0 0 0 .3-58.881 33.645 33.645 0 0 0 7.425-25.953 34.287 34.287 0 0 0 -11.632-21.515l55.2 29.869a85.334 85.334 0 0 1 37.207 110.073z" fill="url(#linear-gradient)" data-original="url(#linear-gradient)"/>
    </g>
  </g>
</svg>
